<svg width="70" height="94" viewBox="0 0 70 94" fill="none" xmlns="http://www.w3.org/2000/svg">
<path fill-rule="evenodd" clip-rule="evenodd" d="M63.851 1.43714C63.6802 1.1313 63.4876 0.993241 63.1912 0.94544C62.9066 0.903135 62.4836 0.97931 62.131 1.13871C61.6281 1.3664 56.878 4.38407 53.0002 6.94188C46.9181 10.9484 41.5068 14.6979 36.4549 18.3941C34.8805 19.5471 34.4247 19.8526 34.3489 19.8141C34.2964 19.7866 33.4735 19.2181 32.5279 18.5444C27.0877 14.696 20.9143 10.5912 14.3518 6.4561C9.68517 3.51745 6.75746 1.74304 6.26264 1.55165C5.84353 1.39315 5.32701 1.38072 5.06119 1.51145C4.81854 1.6364 4.57228 2.02396 4.4657 2.46063C4.36459 2.85815 3.84304 7.08621 3.48219 10.4134C2.38871 20.4734 1.69664 29.9657 1.42038 38.5327C1.33797 41.1593 1.30631 44.9921 1.31669 50.3778C1.33865 57.8361 1.44407 60.0253 1.92279 63.1387C2.7265 68.3334 5.07697 73.9229 8.26962 78.2259C9.11472 79.3641 10.569 81.1788 11.1839 81.8608C12.4021 83.2026 14.2963 84.8963 15.8025 85.9899C19.8658 88.9448 24.7622 90.9094 29.8337 91.6211C31.3616 91.8373 32.2266 91.8915 34.3446 91.9017C37.8726 91.9223 40.0582 91.6861 42.936 90.9748C48.2922 89.6504 53.1957 86.9332 57.092 83.1237C58.3121 81.9347 58.996 81.1524 60.23 79.5386C61.992 77.2332 62.9659 75.7445 63.9708 73.7918C66.1804 69.5105 67.4052 65.4218 67.8369 60.8537C68.0823 58.2872 68.1047 56.1193 67.9837 47.9188C67.8999 42.0812 67.844 40.2604 67.6369 36.3289C67.1343 26.9081 66.0307 15.7157 64.5548 5.09622C64.1532 2.18325 64.0865 1.83742 63.851 1.43714ZM43.3649 20.381C47.4486 17.4694 52.2141 14.217 56.6922 11.2854C57.0125 11.0754 57.3035 10.885 57.5654 10.7143C57.5858 10.701 57.6747 10.645 57.8024 10.5648C58.5074 10.1219 59.4339 10.5638 59.5363 11.3901C60.7059 20.7774 61.5586 30.4188 61.9399 38.5277C62.0313 40.4321 62.1746 45.0512 62.1458 45.0794C62.1343 45.0907 61.9814 44.8517 61.8106 44.5514C59.5256 40.5369 56.7075 37.3034 52.2959 33.6419C51.3259 32.8344 50.2219 31.9609 44.9942 27.8537C42.6637 26.0184 40.5728 24.4046 39.6036 23.692C39.4051 23.5428 39.2472 23.3989 39.2529 23.3765C39.2699 23.3317 41.3403 21.8226 43.3649 20.381ZM9.04471 12.9367C8.08424 22.2525 7.51282 30.2186 7.24628 37.8693C7.17243 40.1326 7.08112 45.156 7.1181 45.4126C7.13677 45.5633 7.17692 45.5071 7.49119 44.929C9.17678 41.8142 11.4386 38.9124 14.3167 36.1618C15.8307 34.7189 17.2133 33.5284 19.9854 31.276C20.8268 30.5929 22.6537 29.1083 24.0484 27.9736C26.3652 26.0937 28.4862 24.3943 29.3337 23.7447C29.5182 23.6035 29.6681 23.4793 29.6679 23.4625C29.6677 23.4346 27.8817 22.1869 25.7281 20.7022C21.5728 17.843 16.8875 14.7537 11.929 11.6052L10.7699 10.8697L10.4595 10.6728C9.96207 10.3572 9.30372 10.6652 9.23354 11.2501C9.16549 11.8173 9.10254 12.3795 9.04471 12.9367ZM23.1296 36.032C28.5007 31.6515 30.6908 29.8844 32.4778 28.4839C33.6554 27.5635 35.3017 27.5619 36.4918 28.466C37.9708 29.5895 39.9648 31.1132 41.4046 32.2472C42.4603 33.0779 43.7513 34.0914 44.7538 34.8786C45.199 35.2281 45.5873 35.533 45.8729 35.7573C48.4138 37.7585 49.4598 38.6436 51.1034 40.2053C53.7004 42.6697 55.1665 44.5122 56.7743 47.3424C58.8944 51.0623 60.0565 54.7175 60.4332 58.8095C60.5294 59.9038 60.5068 62.7421 60.3822 63.7935C60.0256 66.9307 59.1793 69.8039 57.8154 72.5305C56.9764 74.1969 56.1575 75.4831 55.2497 76.5523C53.4856 78.6175 51.2966 80.5186 49.0169 81.9736C44.7459 84.6967 39.705 86.2474 34.9822 86.2927C29.7372 86.3423 24.0877 84.5237 19.4826 81.3051C17.2413 79.7373 14.9368 77.5554 13.6688 75.8006C11.8958 73.3405 10.5363 70.3685 9.7675 67.263C8.57847 62.4795 8.7744 57.4776 10.3416 52.7044C11.3599 49.584 13.2625 46.0539 15.2893 43.5004C17.0635 41.2675 19.1762 39.2609 23.1296 36.032Z" fill="white"/>
<path d="M34.3397 92.792L34.3405 92.7911C32.196 92.7808 31.2887 92.7259 29.7097 92.5024L29.7105 92.5016C24.4977 91.77 19.4633 89.7526 15.2797 86.7103C13.7255 85.5818 11.7864 83.8478 10.5261 82.4597L10.5244 82.4571C9.88312 81.7459 8.40994 79.9068 7.55625 78.757C4.38159 74.4782 2.02189 68.9721 1.12639 63.7772L1.04399 63.2758C0.554169 60.0901 0.44957 57.8403 0.427594 50.3807C0.417221 44.994 0.449196 41.1478 0.532092 38.5056C0.809181 29.9128 1.50295 20.3969 2.59848 10.318C2.77941 8.64985 3.00045 6.75685 3.18907 5.2303C3.28334 4.46738 3.36999 3.79346 3.43944 3.28405C3.50297 2.81805 3.56175 2.41904 3.60277 2.25153L3.6019 2.25067C3.67699 1.94297 3.80227 1.64761 3.96045 1.39633C4.10785 1.16225 4.33496 0.886382 4.65496 0.721605L4.66187 0.717206L4.66966 0.713669C4.98644 0.558005 5.34702 0.525712 5.63242 0.534449C5.93761 0.543813 6.26969 0.603536 6.57825 0.720237L6.58436 0.722787C6.78456 0.800257 7.12445 0.986186 7.52233 1.21442C7.9483 1.45877 8.51355 1.79507 9.20471 2.21408C9.89623 2.6333 10.718 3.13772 11.6584 3.72154L14.8267 5.70425C21.4004 9.8464 27.5874 13.9603 33.0425 17.8192L33.0443 17.8209C33.5143 18.1558 33.9539 18.4644 34.2817 18.6923C34.3234 18.7213 34.3636 18.7485 34.4014 18.7747C34.7085 18.5653 35.1889 18.2193 35.9297 17.6768C40.9947 13.9711 46.4189 10.2129 52.5116 6.19939C54.4548 4.91768 56.616 3.52171 58.3549 2.41668C59.2242 1.86424 59.9906 1.38267 60.5723 1.02465C61.1207 0.687155 61.5733 0.415854 61.7644 0.329248C62.2229 0.121994 62.822 -0.00828976 63.3224 0.0659899L63.3337 0.0676346C63.5906 0.109082 63.8536 0.19998 64.0973 0.38004C64.3294 0.551545 64.4933 0.767775 64.6184 0.9881C64.6205 0.99157 64.6225 0.994131 64.6246 0.997601C64.6258 0.99978 64.6269 1.00234 64.6281 1.00452C64.8089 1.31642 64.9096 1.61061 65.0148 2.15752C65.1166 2.68674 65.237 3.52883 65.4363 4.97466L65.7094 6.97559C67.0513 17.0106 68.0531 27.4235 68.5258 36.2819C68.6817 39.2419 68.7526 41.0139 68.8136 44.1803L68.8735 47.9065C68.9944 56.096 68.974 58.315 68.7231 60.9392C68.2801 65.6261 67.0205 69.8239 64.7619 74.2001C63.7263 76.2125 62.7208 77.7464 60.9377 80.0795C59.6827 81.7208 58.9699 82.5368 57.7136 83.7611C53.7023 87.6827 48.6573 90.4772 43.1499 91.8389C40.1887 92.5708 37.928 92.813 34.3397 92.792ZM34.3508 91.0128C37.8183 91.0331 39.9293 90.8027 42.7236 90.112C47.928 88.8251 52.69 86.1853 56.4711 82.4885L56.472 82.4876C57.5078 81.4782 58.1393 80.7788 59.0934 79.5572L59.524 78.9994C61.2646 76.722 62.2062 75.2781 63.1801 73.3855L63.181 73.3847C65.3414 69.1987 66.5318 65.2195 66.9522 60.7708C67.192 58.2621 67.2158 56.1442 67.0946 47.9328C67.0109 42.1025 66.9555 40.2928 66.7492 36.3767L66.6483 34.5959C66.145 26.1912 65.1934 16.5401 63.9461 7.21277L63.674 5.21965C63.4719 3.7538 63.3588 2.96557 63.2681 2.49359C63.204 2.16089 63.1601 2.03279 63.1219 1.95536L63.0849 1.88878L63.0796 1.88013L63.0752 1.87149C63.064 1.85153 63.0534 1.83744 63.0461 1.82656C63.0157 1.82491 62.9479 1.82373 62.8465 1.84213C62.7291 1.86346 62.6051 1.90185 62.4982 1.95017L62.4212 1.99164C62.3667 2.02197 62.2944 2.0633 62.2051 2.11594C62.0266 2.22103 61.7901 2.36456 61.5041 2.54054C60.9327 2.89223 60.1746 3.36766 59.3092 3.9176C57.5781 5.01764 55.4254 6.40939 53.491 7.68534C47.4195 11.6848 42.0195 15.4261 36.9808 19.1126L35.9913 19.8316C35.7206 20.0255 35.506 20.1761 35.3375 20.2896C35.1733 20.4002 35.0274 20.4928 34.9054 20.5573C34.8478 20.5878 34.7591 20.6324 34.6561 20.6637C34.6177 20.6753 34.3671 20.7577 34.074 20.6607L33.9468 20.608L33.9363 20.6028C33.8787 20.5726 33.8126 20.528 33.8027 20.5214C33.769 20.499 33.7259 20.4693 33.6752 20.4348C33.5728 20.365 33.4327 20.2681 33.2662 20.1524C32.9336 19.9211 32.4894 19.6097 32.0149 19.2716C26.5897 15.4338 20.4296 11.3378 13.8785 7.20985C11.5472 5.74173 9.65283 4.56622 8.28188 3.7351C7.59606 3.31933 7.04497 2.9917 6.63705 2.75772C6.43282 2.64057 6.26868 2.54931 6.14393 2.483C6.0816 2.44987 6.0321 2.42512 5.99474 2.40694C5.9694 2.3946 5.95398 2.38792 5.94678 2.38475C5.83654 2.34329 5.70155 2.31693 5.57784 2.31314C5.54168 2.31204 5.51101 2.31636 5.48581 2.31826C5.4803 2.32616 5.47232 2.33365 5.46604 2.34362C5.41387 2.42646 5.36213 2.54342 5.33067 2.67225L5.32814 2.68096C5.32681 2.68753 5.32346 2.70403 5.31816 2.73403C5.31027 2.77875 5.30106 2.8393 5.28928 2.91584C5.26576 3.06873 5.23636 3.27398 5.2023 3.52379C5.13426 4.02287 5.04908 4.68881 4.95523 5.44829C4.76761 6.96681 4.54694 8.85109 4.36703 10.5099C3.27562 20.5509 2.58536 30.0207 2.30993 38.5619C2.22803 41.1727 2.19629 44.9932 2.20666 50.3771C2.22863 57.8322 2.33513 59.9626 2.80256 63.003L2.88038 63.4776C3.72798 68.392 5.9739 73.6381 8.98505 77.6965C9.821 78.8223 11.2541 80.6106 11.8435 81.2646C13.0196 82.56 14.8677 84.2122 16.3257 85.2708L16.3266 85.2716C20.2695 88.1388 25.0282 90.0494 29.9581 90.7412C31.4346 90.9502 32.2582 91.0027 34.3491 91.0128L34.3508 91.0128ZM7.66884 46.2102C7.5421 46.298 7.12868 46.5167 6.67792 46.2419C6.36498 46.0512 6.28408 45.7453 6.27475 45.7137C6.24945 45.6287 6.23951 45.5529 6.23579 45.5229L6.23753 45.5229C6.22398 45.4119 6.22173 45.2365 6.22106 45.113C6.22014 44.9406 6.22094 44.7097 6.22321 44.4371C6.22776 43.891 6.23824 43.1654 6.25198 42.3789C6.27945 40.8061 6.32097 38.9789 6.3581 37.8408L6.35809 37.8391C6.62545 30.1647 7.19814 22.1782 8.16027 12.8462C8.21859 12.2843 8.28241 11.7163 8.35101 11.1445C8.50033 9.90179 9.89373 9.26098 10.9364 9.9223L12.4063 10.8551C17.3725 14.0085 22.067 17.1038 26.2326 19.9699L26.2334 19.9708C27.3111 20.7138 28.2984 21.3976 29.0164 21.9003C29.3749 22.1512 29.6686 22.3585 29.8737 22.5055C29.9754 22.5784 30.0597 22.6397 30.1202 22.685C30.1491 22.7066 30.1803 22.7308 30.2076 22.7529C30.2193 22.7623 30.244 22.7822 30.2706 22.8071C30.2817 22.8174 30.3121 22.8463 30.346 22.8864C30.362 22.9053 30.397 22.9476 30.4322 23.0064C30.4499 23.036 30.5563 23.2085 30.5584 23.4562C30.5606 23.7253 30.4374 23.9127 30.4269 23.9299C30.3922 23.9868 30.3579 24.0288 30.3419 24.0479C30.3074 24.0888 30.2742 24.1211 30.2575 24.1372C30.2197 24.1733 30.178 24.2093 30.1428 24.2389C30.0684 24.3014 29.9732 24.3764 29.8753 24.4514L29.0261 25.1152C27.9709 25.9495 26.349 27.2542 24.6098 28.6653C23.2151 29.8 21.3884 31.2843 20.5468 31.9675L18.7126 33.4718C17.0934 34.8161 16.0481 35.742 14.9313 36.8063C12.112 39.5008 9.91008 42.3297 8.27408 45.3529L8.27322 45.3546C8.13667 45.6058 8.00609 45.8481 7.90063 45.9858C7.87436 46.0201 7.79515 46.1225 7.66884 46.2102ZM62.6638 45.8043C62.4133 45.985 62.1348 45.9869 61.9648 45.9517C61.7994 45.9175 61.6861 45.8445 61.6466 45.818C61.557 45.7578 61.4981 45.694 61.4839 45.6787C61.4413 45.6328 61.4085 45.5885 61.3943 45.5691C61.3591 45.5207 61.3217 45.4633 61.2879 45.4101C61.2172 45.299 61.1283 45.151 61.0377 44.9918C58.8167 41.0898 56.0764 37.9361 51.7287 34.3275L51.7278 34.3267C50.7701 33.5294 49.6792 32.6654 44.4457 28.5536C42.6976 27.1771 41.0892 25.9295 39.9915 25.0953L39.0771 24.4098L39.0701 24.4037C38.954 24.3165 38.8433 24.2263 38.7561 24.1475C38.7149 24.1103 38.6642 24.0622 38.6177 24.0106C38.5971 23.9877 38.5549 23.941 38.5141 23.8785C38.4945 23.8486 38.4571 23.7865 38.4248 23.7029C38.4022 23.6444 38.3232 23.431 38.3908 23.1611L38.4034 23.1106L38.4221 23.0618C38.4633 22.9533 38.5165 22.8784 38.5341 22.8541C38.5582 22.8209 38.5799 22.7958 38.5926 22.7815C38.6179 22.7532 38.6403 22.7313 38.6511 22.7211C38.6745 22.6991 38.6967 22.6803 38.7098 22.6694C38.7384 22.6455 38.7722 22.619 38.8056 22.593C38.8747 22.5392 38.9708 22.4665 39.0861 22.3804C39.3183 22.2071 39.6458 21.9668 40.0332 21.6845C40.8089 21.1193 41.8353 20.3792 42.8499 19.6567C46.4319 17.103 50.5353 14.2886 54.5111 11.6572L56.2053 10.5423C56.526 10.332 56.8179 10.1415 57.0805 9.97031C57.1093 9.95154 57.2076 9.88974 57.3302 9.81271C58.5887 9.02226 60.237 9.81138 60.4195 11.281L60.6358 13.0469C61.6968 21.8889 62.4704 30.8594 62.8291 38.4858L62.9044 40.319C62.9303 41.0227 62.9554 41.7812 62.9773 42.4797C62.9991 43.1789 63.0181 43.8213 63.0289 44.2914C63.0344 44.5258 63.0375 44.7208 63.0389 44.8595C63.0396 44.9277 63.0402 44.9889 63.0395 45.0358C63.0392 45.0574 63.0385 45.0869 63.0367 45.1166C63.036 45.1291 63.0338 45.1605 63.0287 45.1975C63.0264 45.214 63.0201 45.2546 63.007 45.3045C63.0005 45.3293 62.9874 45.3759 62.9638 45.4308C62.9463 45.4716 62.8911 45.596 62.769 45.7157L62.6638 45.8043ZM8.03374 42.2823C9.57282 39.9112 11.457 37.6657 13.7026 35.5197L13.7035 35.5188C15.2423 34.0522 16.6458 32.8443 19.425 30.5861C20.2662 29.9032 22.0936 28.4184 23.488 27.2839C25.3789 25.7497 27.1487 24.3306 28.2012 23.5029C28.1355 23.4568 28.0672 23.4078 27.9958 23.3578C27.2827 22.8587 26.3002 22.1774 25.225 21.436C21.08 18.584 16.4034 15.5007 11.4529 12.3573L10.1009 11.4991C10.0399 12.0134 9.98298 12.5236 9.93048 13.0294C8.97174 22.3286 8.40168 30.2739 8.13597 37.9006C8.10026 38.9956 8.0611 40.7441 8.03374 42.2823ZM61.1267 40.3843L61.0524 38.5711C60.6723 30.4882 59.8216 20.8689 58.6544 11.5008C58.6316 11.3183 58.4272 11.2238 58.2758 11.3189C58.2123 11.3588 58.1585 11.3923 58.1186 11.4175C58.0986 11.4301 58.0823 11.4406 58.0702 11.4483C58.0583 11.4559 58.053 11.4592 58.052 11.4598C57.791 11.63 57.5 11.8203 57.1803 12.03L55.4931 13.1414C51.5332 15.7622 47.4455 18.5654 43.8811 21.1066C42.8714 21.8256 41.8506 22.5611 41.0808 23.122C40.945 23.221 40.8184 23.3165 40.7001 23.4032C41.8081 24.2383 43.5971 25.6214 45.545 27.1553C50.7645 31.2561 51.8827 32.1409 52.8647 32.9585C56.4881 35.9658 59.0756 38.7101 61.1763 41.8364C61.1602 41.35 61.144 40.8544 61.1267 40.3843ZM34.991 87.1825C29.5474 87.2339 23.7186 85.3517 18.9733 82.0352C16.8149 80.5253 14.5852 78.4542 13.2114 76.6742L12.9487 76.3219L12.9478 76.3211C11.1053 73.7645 9.69918 70.6881 8.90452 67.4786L8.79377 67.0139C7.689 62.2072 7.9303 57.2049 9.49753 52.4304L9.49665 52.4295C10.5478 49.2082 12.5014 45.5842 14.5937 42.9483C16.1982 40.9291 18.0609 39.1032 21.1609 36.5065L22.568 35.3437C27.9381 30.9639 30.1351 29.1914 31.9299 27.7847L31.9308 27.7838C33.4306 26.6115 35.5231 26.6131 37.0307 27.7584C38.5099 28.8821 40.5096 30.4098 41.9559 31.5489C43.011 32.3791 44.301 33.3929 45.3034 34.1799C45.7483 34.5292 46.137 34.8339 46.4227 35.0583L46.4236 35.0592C48.9763 37.0697 50.0458 37.9737 51.7161 39.5607L52.2013 40.0266C54.5612 42.3221 55.9967 44.1719 57.5485 46.9035C59.7286 50.7291 60.9311 54.5066 61.3197 58.7288L61.3198 58.7323C61.4206 59.8788 61.3988 62.7728 61.2667 63.8945L61.1918 64.4989C60.7872 67.5037 59.9349 70.2834 58.6113 72.9296L58.6104 72.9313C57.7499 74.6405 56.8944 75.9911 55.9284 77.1288L55.9266 77.1306C54.1053 79.2628 51.8492 81.2222 49.4957 82.7242L49.0809 82.984C44.7701 85.6292 39.7392 87.137 34.991 87.1825ZM35.4017 85.3956C39.8231 85.2658 44.5282 83.7827 48.5397 81.2251C50.7449 79.8177 52.8667 77.9752 54.5731 75.9779C55.4222 74.9778 56.2041 73.7563 57.021 72.1342C58.3368 69.5036 59.1537 66.7306 59.4989 63.6939L59.4997 63.6896C59.6163 62.7067 59.6392 59.9357 59.5481 58.8922L59.4707 58.1536C59.0681 54.7328 58.0776 51.6152 56.3775 48.4605L56.0018 47.7835C54.539 45.2086 53.2086 43.487 50.9549 41.2958L50.4917 40.8514C48.8753 39.3156 47.8522 38.4485 45.3242 36.4575L40.8549 32.9472C39.4218 31.8185 37.4328 30.2981 35.9541 29.1747C35.0817 28.5122 33.8818 28.5172 33.0267 29.1854C31.2477 30.5797 29.0638 32.3416 23.6923 36.7224C19.7557 39.9376 17.7014 41.8967 15.9868 44.0546C14.0255 46.5255 12.1736 49.9615 11.1883 52.9808L11.1874 52.9826C9.67149 57.5996 9.48356 62.4309 10.6314 67.0489C11.3743 70.0498 12.6875 72.918 14.3907 75.2813C15.5127 76.8339 17.5388 78.7889 19.5841 80.284L19.9931 80.5768C24.4579 83.6972 29.9282 85.4513 34.9744 85.4035L35.4017 85.3956Z" fill="white"/>
<path fill-rule="evenodd" clip-rule="evenodd" d="M48.415 70.2022C45.5734 74.3497 40.9247 77.0589 35.6747 77.6144C34.9845 77.6848 33.1274 77.7058 32.4418 77.6469C28.9399 77.3479 25.742 76.1527 23.0639 74.151C19.4456 71.4412 17.0899 67.3695 16.5828 62.954C16.4854 62.1419 16.5174 59.8752 16.6299 59.1206C17.0857 56.0751 18.2527 53.4436 20.2031 51.0531C20.7524 50.3864 22.1735 49.0124 22.8655 48.479C25.7293 46.2962 29.0427 45.0626 32.7381 44.8054C34.6056 44.6767 36.7194 44.8851 38.5695 45.381C41.4581 46.1589 44.2115 47.6916 46.2553 49.6771C48.8186 52.1642 50.4413 55.2569 51.0371 58.7834C51.1919 59.6865 51.2638 61.5055 51.1811 62.4483C50.9331 65.2821 50.0149 67.8685 48.415 70.2022ZM24.2874 67.4545C26.2755 70.2211 29.4384 71.9764 32.9401 72.2593C35.2746 72.4443 37.7218 71.8962 39.7787 70.7215C42.5738 69.126 44.5783 66.4336 45.2098 63.4082C45.8685 60.2588 45.0828 57.0461 43.0284 54.4739C42.6107 53.9552 41.6288 52.9998 41.0703 52.5792C38.3179 50.4974 34.6988 49.7094 31.3246 50.4484C27.4417 51.3046 24.3156 53.9418 22.9639 57.5116C22.5318 58.6512 22.3308 59.6649 22.3017 60.9141C22.2628 62.3572 22.4482 63.5346 22.9237 64.8604C23.1847 65.6011 23.8119 66.7963 24.2874 67.4545Z" fill="white"/>
<path d="M38.7985 44.5221C36.8557 44.0014 34.6436 43.7829 32.676 43.9185L32.6752 43.9185C29.0532 44.1705 25.7679 45.3229 22.8946 47.3537L22.3248 47.772L22.3213 47.7747C21.5771 48.3483 20.1079 49.7688 19.5156 50.4877L19.513 50.4912C17.462 53.0049 16.2285 55.7849 15.749 58.9891L15.7054 59.3839C15.6669 59.8344 15.6448 60.4331 15.6374 61.0046C15.6275 61.7654 15.643 62.5841 15.6989 63.0551L15.698 63.056C16.2335 67.7189 18.7191 72.0097 22.5295 74.8634L22.5304 74.8633C25.3479 76.9692 28.706 78.2203 32.3654 78.5327C33.1096 78.5965 35.0209 78.5755 35.7634 78.4999L35.7669 78.499C41.2619 77.9176 46.1515 75.0785 49.1481 70.7048L49.1481 70.7039C50.8352 68.2425 51.8049 65.51 52.0661 62.5267L52.0921 62.1069C52.1353 61.0496 52.0597 59.4914 51.9127 58.6336C51.3048 55.0379 49.6789 51.8625 47.1241 49.2866L46.8736 49.0385C44.7146 46.9413 41.8246 45.3368 38.7994 44.5221L38.7985 44.5221ZM32.7986 45.6922C34.5657 45.5705 36.5807 45.7698 38.3377 46.2408L38.3386 46.2399C41.0899 46.9811 43.7061 48.4423 45.6343 50.3154L45.6351 50.3154C48.062 52.6703 49.5942 55.5912 50.1587 58.9315L50.1596 58.9341C50.2834 59.6568 50.3515 61.0812 50.3157 62.008L50.2935 62.3704L50.2935 62.3713C50.0586 65.0545 49.1921 67.4936 47.6803 69.699L47.6803 69.6998C44.9944 73.62 40.5875 76.1986 35.5844 76.7292L35.5835 76.7292C34.9456 76.7943 33.1438 76.8149 32.5164 76.7611L31.893 76.6977C28.7943 76.3303 25.9757 75.2173 23.5956 73.4384C20.1699 70.8726 17.9444 67.0204 17.4659 62.8526L17.465 62.8483C17.424 62.5064 17.4059 61.7886 17.4158 61.027C17.4232 60.4547 17.4453 59.9174 17.4755 59.5532L17.5086 59.2524C17.9406 56.3657 19.0417 53.8831 20.8915 51.6159L20.8915 51.615C21.4004 50.9987 22.7694 49.6762 23.4077 49.1841L23.4077 49.1833C26.1284 47.1109 29.2734 45.9384 32.7986 45.6931L32.7986 45.6922ZM41.6044 51.8686C38.6438 49.6301 34.7592 48.7856 31.1329 49.5797L31.1321 49.5797C26.9717 50.4972 23.5947 53.3315 22.1311 57.1965L21.9673 57.6539C21.6116 58.7109 21.4394 59.7102 21.4115 60.8901C21.3699 62.4387 21.5719 63.7249 22.0841 65.155L22.0832 65.1559C22.3729 65.9779 23.0405 67.2467 23.5645 67.9728L23.5637 67.9737C25.7097 70.9601 29.115 72.8429 32.8674 73.1461L32.8692 73.146C35.3828 73.3451 38.0077 72.7563 40.2184 71.4938C43.223 69.7788 45.393 66.878 46.0792 63.5907L46.1417 63.2705C46.7391 59.9575 45.8681 56.6062 43.7221 53.9192L43.7203 53.9158C43.315 53.4125 42.4718 52.5794 41.8536 52.0672L41.6044 51.8686ZM31.515 51.3165C34.6361 50.6335 37.9894 51.3653 40.533 53.2892L40.5339 53.2901C41.033 53.6661 41.9624 54.5702 42.3346 55.0324C44.1671 57.3286 44.8946 60.1616 44.3904 62.9559L44.3379 63.2265C43.7612 65.9897 41.9221 68.473 39.3368 69.9488C37.4342 71.0353 35.1653 71.5432 33.0107 71.3727C29.7597 71.1101 26.8384 69.4824 25.0083 66.9356L25.0074 66.9339C24.5808 66.3433 23.9939 65.2236 23.7618 64.565L23.76 64.5607C23.3229 63.3417 23.1543 62.2741 23.1902 60.9386L23.1901 60.9351C23.2136 59.9305 23.3549 59.1049 23.6555 58.2139L23.7947 57.8271C25.0346 54.5526 27.9099 52.1124 31.515 51.3174L31.515 51.3165Z" fill="white"/>
</svg>
